<svg xmlns="http://www.w3.org/2000/svg" width="26.67" height="30" viewBox="0 0 26.67 30">
  <g id="download_2_" data-name="download (2)" transform="translate(-8 -5)">
    <path id="Path_11" data-name="Path 11" d="M21.333,39.413A13.335,13.335,0,0,1,13.8,15.078a.557.557,0,0,1,.631.918,12.222,12.222,0,0,0-.556,19.756,12.089,12.089,0,0,0,7.461,2.55,12.222,12.222,0,0,0,6.833-22.356.556.556,0,0,1,.622-.922,13.333,13.333,0,0,1-7.456,24.389Z" transform="translate(0 -4.413)" fill="#009cdb"/>
    <path id="Path_12" data-name="Path 12" d="M31.889,24.444H19.667A1.667,1.667,0,0,1,18,22.778V6.667A1.667,1.667,0,0,1,19.667,5h7.778a.556.556,0,0,1,.394.161l5.556,5.556a.556.556,0,0,1,.161.394V22.778A1.667,1.667,0,0,1,31.889,24.444ZM19.667,6.111a.556.556,0,0,0-.556.556V22.778a.556.556,0,0,0,.556.556H31.889a.556.556,0,0,0,.556-.556V11.361l-5.222-5.25Z" transform="translate(-4.444)" fill="#009cdb"/>
    <path id="Path_13" data-name="Path 13" d="M40.111,11.667H34.556A.556.556,0,0,1,34,11.112V5.556a.559.559,0,0,1,.95-.394l5.556,5.556a.559.559,0,0,1-.394.95Zm-5-1.111h3.661L35.111,6.9Z" transform="translate(-11.556 -0.001)" fill="#009cdb"/>
    <path id="Path_14" data-name="Path 14" d="M27,12.111H22.556a.556.556,0,0,1,0-1.111H27a.556.556,0,0,1,0,1.111Z" transform="translate(-6.222 -2.667)" fill="#009cdb"/>
    <path id="Path_15" data-name="Path 15" d="M27,17.111H22.556a.556.556,0,0,1,0-1.111H27a.556.556,0,0,1,0,1.111Z" transform="translate(-6.222 -4.889)" fill="#009cdb"/>
    <path id="Path_16" data-name="Path 16" d="M32,22.111H22.556a.556.556,0,0,1,0-1.111H32a.556.556,0,0,1,0,1.111Z" transform="translate(-6.222 -7.111)" fill="#009cdb"/>
    <path id="Path_17" data-name="Path 17" d="M32,27.111H22.556a.556.556,0,0,1,0-1.111H32a.556.556,0,0,1,0,1.111Z" transform="translate(-6.222 -9.333)" fill="#009cdb"/>
    <path id="Path_18" data-name="Path 18" d="M32,32.111H22.556a.556.556,0,1,1,0-1.111H32a.556.556,0,0,1,0,1.111Z" transform="translate(-6.222 -11.556)" fill="#009cdb"/>
    <path id="Path_19" data-name="Path 19" d="M32.556,48.889h-10A.556.556,0,0,1,22,48.333V45.556a.556.556,0,1,1,1.111,0v2.222H32V45.556a.556.556,0,1,1,1.111,0v2.778A.556.556,0,0,1,32.556,48.889Z" transform="translate(-6.222 -17.778)" fill="#009cdb"/>
    <path id="Path_20" data-name="Path 20" d="M31.556,44.333A.556.556,0,0,1,31,43.778V41.556a.556.556,0,1,1,1.111,0v2.222A.556.556,0,0,1,31.556,44.333Z" transform="translate(-10.222 -16)" fill="#009cdb"/>
    <path id="Path_21" data-name="Path 21" d="M30.22,46.776a.556.556,0,0,1-.394-.161l-1.667-1.667a.558.558,0,0,1,.789-.789l1.272,1.278,1.272-1.278a.558.558,0,0,1,.789.789l-1.667,1.667A.556.556,0,0,1,30.22,46.776Z" transform="translate(-8.887 -17.332)" fill="#009cdb"/>
  </g>
</svg>
