<svg xmlns="http://www.w3.org/2000/svg" width="30" height="30" viewBox="0 0 30 30">
  <g id="machine-learning" transform="translate(-1 -1)">
    <path id="Path_1" data-name="Path 1" d="M31,11.267l-1.169-.292.62-1.033-.9-.9V1H16V8.742H14.86a6.392,6.392,0,0,0,.172-1.452A6.29,6.29,0,1,0,2.656,8.875,2.429,2.429,0,0,0,1,11.161V22.774a2.422,2.422,0,0,0,2.419,2.419H9.71v.968H7.888a1.445,1.445,0,0,0-1.3.8l-.751,1.5V31H19.387V28.466l-.751-1.5a1.444,1.444,0,0,0-1.3-.8H15.516v-.968h6.29a2.422,2.422,0,0,0,2.419-2.419V19.387h2.313l.292-1.169,1.034.619,2.587-2.587-.619-1.033L31,14.926Zm-14.032-9.3H28.581v6.1l-.716-.717-1.034.62-.292-1.169H22.88l-.292,1.169-1.034-.62L20.169,8.742h-3.2ZM19.2,9.71l-.233.233.69,1.15-.883.547L16,11.645l0,.968,6.316-.014.115-.32a2.42,2.42,0,1,1,0,1.624l-.114-.323H17.452A1.453,1.453,0,0,0,16,15.032v2.9a.484.484,0,0,1-.968,0v-.968a1.452,1.452,0,1,0-2.9,0v.968a.484.484,0,0,1-.484.484H9.71a.484.484,0,0,1-.484-.484v-.527a2.905,2.905,0,0,0,2.419-2.86V13.3l1.545-1.545A6.284,6.284,0,0,0,14.557,9.71ZM6.806,13.581h3.871v.968a1.935,1.935,0,0,1-3.871,0ZM7.29,7.774H6.323a.968.968,0,1,1,.968-.968Zm1.935,4.839H8.258V8.742h.968ZM8.742,1.968a5.332,5.332,0,0,1,3.764,9.1l-1.545,1.545h-.767V8.742h.968A1.935,1.935,0,1,0,9.226,6.806v.968H8.258V6.806A1.935,1.935,0,1,0,6.323,8.742H7.29v3.871H6.523L4.978,11.068a5.333,5.333,0,0,1,3.764-9.1Zm1.452,5.806V6.806a.968.968,0,1,1,.968.968ZM7.888,27.129H9.71V28.1h-2.6l.35-.7A.48.48,0,0,1,7.888,27.129Zm-1.082,2.9v-.968H18.419v.968Zm10.531-2.9a.481.481,0,0,1,.433.268l.35.7h-2.6v-.968Zm-2.789.968H10.677v-2.9h3.871Zm7.258-3.871H3.419a1.453,1.453,0,0,1-1.452-1.452V21.323H7.774v.484a1.453,1.453,0,0,0,1.452,1.452H16a1.453,1.453,0,0,0,1.452-1.452v-.484h5.806v1.452A1.453,1.453,0,0,1,21.806,24.226Zm-5.323-2.9v.484A.484.484,0,0,1,16,22.29H14.548v-.968Zm-2.9.968H11.645v-.968h1.935Zm-2.9,0H9.226a.484.484,0,0,1-.484-.484v-.484h1.935Zm12.581-1.935H1.968V11.161a1.457,1.457,0,0,1,1-1.373,6.289,6.289,0,0,0,1.331,1.964L5.839,13.3v1.251a2.906,2.906,0,0,0,2.419,2.86v.527A1.453,1.453,0,0,0,9.71,19.387h1.935A1.453,1.453,0,0,0,13.1,17.935v-.968a.484.484,0,1,1,.968,0v.968a1.452,1.452,0,1,0,2.9,0v-2.9a.484.484,0,0,1,.484-.484h1.314l.893.553-.69,1.15,2.587,2.587,1.034-.619.291,1.169h.378Zm6.774-6.184-.943.236-.258.1-.225.553.627,1.045L27.714,17.62l-1.045-.627-.59.24-.3,1.186H23.636l-.235-.943-.1-.258-.553-.225-1.045.627L20.186,16.1l.627-1.045-.209-.507h1.043a3.389,3.389,0,1,0,.005-2.915l-1.069,0,.036-.029.193-.469-.627-1.044L21.7,8.575,22.75,9.2l.59-.243.3-1.184h2.147l.3,1.184.59.243,1.045-.627,1.519,1.518-.627,1.044.24.59,1.186.3Z" fill="#fff"/>
    <path id="Path_2" data-name="Path 2" d="M28,23h.968v.968H28Z" transform="translate(-13.935 -11.355)" fill="#fff"/>
    <path id="Path_3" data-name="Path 3" d="M36,5h.968v.968H36Z" transform="translate(-18.065 -2.065)" fill="#fff"/>
    <path id="Path_4" data-name="Path 4" d="M40,5h7.742v.968H40Z" transform="translate(-20.129 -2.065)" fill="#fff"/>
    <path id="Path_5" data-name="Path 5" d="M36,9h9.677v.968H36Z" transform="translate(-18.065 -4.129)" fill="#fff"/>
    <path id="Path_6" data-name="Path 6" d="M36,13h.968v.968H36Z" transform="translate(-18.065 -6.194)" fill="#fff"/>
    <path id="Path_7" data-name="Path 7" d="M40,13h.968v.968H40Z" transform="translate(-20.129 -6.194)" fill="#fff"/>
    <path id="Path_8" data-name="Path 8" d="M5,33h.968v.968H5Z" transform="translate(-2.065 -16.516)" fill="#fff"/>
    <path id="Path_9" data-name="Path 9" d="M5,29h.968v.968H5Z" transform="translate(-2.065 -14.452)" fill="#fff"/>
    <path id="Path_10" data-name="Path 10" d="M5,37h.968v.968H5Z" transform="translate(-2.065 -18.581)" fill="#fff"/>
  </g>
</svg>
